<svg xmlns="http://www.w3.org/2000/svg" width="208" height="235" viewBox="0 0 208 235" version="1.1"><path fill="#010101" d="M102.18 0L106.68 0C111.23 3.55 113.96 8.88 118.53 12.42 123.43 16.58 129.72 18.36 135.75 20.18 149.4 24.52 162.9 31.76 171.17 43.84 177.76 53.23 179.34 65.28 177.59 76.43 182.27 74.15 187.65 72.67 192.81 74.13 201.09 76.4 206.86 84.32 208 92.63L208 100.36C206.24 110.44 198.25 118.12 189.54 122.72 183.06 126.27 175.25 127.38 168.13 125.17 160.15 134.17 148.67 139.12 137.14 141.7 140.65 147.3 139.46 154.15 141.94 160.07 145.97 172.53 147.68 185.66 147.96 198.73 158.39 199.43 169.64 199.47 178.99 194.14 188.27 188.91 192.64 176.84 189.44 166.79 186.83 158.76 174.6 154.77 168.77 161.65 171.77 162.91 175.15 164.31 176.53 167.53 178.62 171.45 176.46 176.78 172.24 178.15 165.12 180.46 156.05 176.87 153.47 169.57 150.66 162.67 152.6 154.12 158.46 149.4 170.39 139.41 190.86 142.5 199.27 155.66 209.08 170.58 204.1 192.51 189.83 202.81 177.72 211.65 161.97 212.86 147.47 212 147.29 213.83 147.1 215.66 146.92 217.5 151.28 220.26 157.49 223.07 157.77 228.99 157.22 233.43 151.8 234.14 148.27 235L133.65 235C130.6 234.19 127.17 233.55 124.93 231.13 122.78 228.53 124.17 225.06 124.85 222.18 123.44 219.45 121.87 216.8 120.18 214.23 110.62 216.31 100.64 216.33 91.08 214.22 89.32 216.73 87.7 219.34 86.3 222.07 86.88 224.82 88.43 228.03 86.62 230.64 84.49 233.51 80.74 234.23 77.48 235L62.82 235C59.36 234.09 53.99 233.43 53.56 228.98 53.84 223.04 59.89 220.18 64.32 217.47 63.88 213.2 63.52 208.92 63.33 204.64 56.77 201.99 50.42 198.58 45.17 193.79 39.37 188.46 33.71 182.64 26.47 179.29 20.3 176.36 13.31 176.98 6.8 178.18 6.53 172.3 7.58 166.08 11.38 161.4 15.81 155.55 23.19 153.24 30.16 152.24 43.26 150.27 56.26 146.98 68.07 140.84 57.83 138.02 47.82 133.2 40.65 125.17 27.22 129.33 13.09 121.45 5.17 110.79 -2.77 100.27-0.29 83.18 11.2 76.22 17.21 72.21 25.06 73.19 31.17 76.43 29.49 65.48 31 53.69 37.29 44.37 45.11 32.41 58.23 25.15 71.46 20.68 77.55 18.73 84.01 17.26 89.17 13.27 94.34 9.69 97.28 3.86 102.18 0Z"/><path fill="#3486ab" d="M97.19 9.26C99.39 6.8 101.14 3.78 104.07 2.11 107.86 3.06 109.49 7.3 112.13 9.84 116.77 15.29 123.03 19.36 130 21.11 144.05 25.14 158.45 31.48 167.57 43.39 174.4 52.04 177.03 63.83 174.98 74.58 172.86 76.88 170.51 79.06 169.12 81.91 169.2 81.41 169.36 80.4 169.44 79.9 170.66 71.07 169.79 61.6 165.16 53.82 160.23 45.29 150.93 39.98 141.4 38.34 130.38 36.53 118.93 38.4 108.76 42.89 106.72 43.6 104.49 45.08 102.36 43.79 94.94 40.53 87.08 38.09 78.94 37.73 67.42 36.94 55.03 40.28 47.12 49.08 40.03 56.9 38.02 68.05 39.12 78.28 37.2 76 35.28 73.7 33.53 71.29 32.16 60.7 35.71 49.66 42.63 41.57 51.92 30.77 65.52 24.91 78.94 21.1 86.08 19.2 92.53 14.99 97.19 9.26Z"/><path fill="#8be0fe" d="M73.69 32.17C75.8 27.9 80.47 25.51 85.06 25.1 86.94 25.21 87.99 27.07 89.34 28.14 91.51 27.08 93.6 25.76 95.97 25.19 98.88 25.57 101.31 27.4 104.07 28.26 107.26 27.79 109.9 25.41 113.16 25.21 115.39 25.88 117.39 27.13 119.48 28.15 120.87 27.05 121.97 24.97 124.01 25.12 128.56 25.48 132.68 28.15 135.23 31.89 131.31 31.37 127.85 29.25 123.95 28.69 123.06 29.89 122.46 31.27 121.79 32.6 118.86 31.71 116.03 30.42 113 29.89 109.4 29.95 107.45 33.94 104.04 34.48 101.54 33.27 99.7 30.98 97.08 29.99 93.48 29.79 90.2 31.75 86.83 32.77 86.41 31.42 85.99 30.08 85.57 28.73 81.41 29.16 77.64 30.99 73.69 32.17Z"/><path fill="#fec28e" d="M47.12 49.08C55.03 40.28 67.42 36.94 78.94 37.73 87.08 38.09 94.94 40.53 102.36 43.79 104.49 45.08 106.72 43.6 108.76 42.89 118.93 38.4 130.38 36.53 141.4 38.34 150.93 39.98 160.23 45.29 165.16 53.82 169.79 61.6 170.66 71.07 169.44 79.9 164.9 81.76 160.61 84.14 156.52 86.83 155.83 87.11 154.46 87.65 153.77 87.92 154.73 88.3 155.68 88.67 156.64 89.06 159.64 92.97 163.05 96.79 164.52 101.6 166.07 106.42 165.62 111.58 165.02 116.53 164.65 117.32 164.22 118.08 163.74 118.81 159.2 122.3 154.83 126.22 149.43 128.32 137.42 133.16 124.37 134.56 111.55 135.25 107.22 132.09 101.02 132.06 96.9 135.6L96.6 135.87C86.02 134.92 75.27 134.36 65.11 130.97 58.61 128.89 52.05 125.76 47.85 120.18 43.51 114.51 42.82 106.37 46.05 100.03 47.97 96.15 50.53 92.65 52.73 88.93 53.26 88.73 54.32 88.31 54.86 88.11 54.75 87.88 54.54 87.43 54.43 87.21 53.67 85.87 53.24 84.07 51.62 83.5 47.64 81.67 43.36 80.63 39.22 79.22 39.2 78.98 39.14 78.52 39.12 78.28 38.02 68.05 40.03 56.9 47.12 49.08Z"/><path fill="#010102" d="M47.89 57.1C48.41 57.07 49.45 57 49.97 56.97 50.08 59.92 48.69 63.53 51.14 65.89 53.87 68.16 57.58 68.69 60.99 69.16 75.37 70.57 89.62 67.24 103.95 66.81 119.68 67 135.42 71.31 151.13 68.63 154.56 67.98 159.4 66.37 159.07 62.06 159.35 60.32 157.53 57.35 160.03 56.67 163.25 59.76 162.29 66.13 158.59 68.6 154.68 71.14 149.87 71.75 145.31 72.09 144.79 72.05 143.76 71.97 143.24 71.94 145.27 75.03 146.61 78.65 145.77 82.4 145.28 83.67 144.64 84.87 144.05 86.1 140.2 85.67 136.32 85.65 132.47 86.16 132.36 85.88 132.13 85.32 132.02 85.04 129.6 80.76 130.53 75.65 133.49 71.91 123.66 71.35 113.92 69.62 104.07 69.52 94.42 69.72 84.87 71.37 75.25 71.92 78.23 75.6 79.21 80.71 76.82 84.98 76.69 85.28 76.45 85.87 76.32 86.17 72.51 85.7 68.66 85.63 64.85 86.14 64.21 84.85 63.53 83.58 63 82.24 62.36 78.56 63.6 74.99 65.59 71.94 65.1 71.98 64.13 72.05 63.64 72.09 58.85 71.75 53.68 71.16 49.69 68.22 46.39 65.59 46.27 60.7 47.89 57.1Z"/><path fill="#f39d6a" d="M75.25 71.92C84.87 71.37 94.42 69.72 104.07 69.52 113.92 69.62 123.66 71.35 133.49 71.91 130.53 75.65 129.6 80.76 132.02 85.04 125.92 86.03 119.74 86.31 113.58 86.49 108.69 81.78 100.83 82.51 95.38 85.83 94.02 86.6 92.42 86.42 90.93 86.4 86.21 86.15 81.49 85.71 76.82 84.98 79.21 80.71 78.23 75.6 75.25 71.92Z"/><path fill="#185874" d="M33.53 71.29C35.28 73.7 37.2 76 39.12 78.28 39.14 78.52 39.2 78.98 39.22 79.22 39.6 81.85 40.11 84.46 40.61 87.08 45.2 86.57 49.84 86.6 54.43 87.21 54.54 87.43 54.75 87.88 54.86 88.11 54.32 88.31 53.26 88.73 52.73 88.93 48.87 90.54 44.27 92.2 42.35 96.23 39 105.51 41.72 116.37 48.44 123.48 52.51 128.2 58.34 130.85 64.14 132.78 73.8 136.05 83.92 137.7 94.06 138.44 94.89 137.57 95.74 136.71 96.6 135.87L96.9 135.6C101.9 135.66 106.9 135.61 111.91 135.57 112.88 136.52 113.82 137.5 114.77 138.48 127 137.49 139.31 135.38 150.63 130.46 156.12 128.12 160.69 123.93 163.74 118.81 164.22 118.08 164.65 117.32 165.02 116.53 168.2 110.17 168.9 102.4 166.21 95.76 164.22 92.22 160.17 90.62 156.64 89.06 155.68 88.67 154.73 88.3 153.77 87.92 154.46 87.65 155.83 87.11 156.52 86.83 160.4 86.51 164.3 86.75 168.17 87.07 168.48 85.35 168.79 83.62 169.12 81.91 170.51 79.06 172.86 76.88 174.98 74.58 174.93 79.72 172.68 84.36 170.85 89.04 169.24 92.7 171.41 96.44 172.11 100.04 173.79 106.44 172.91 113.52 169.19 119.06 163.15 129.2 151.94 134.75 140.98 137.93 125.08 142.29 108.36 142.81 91.99 141.83 77.22 140.78 61.92 138.08 49.49 129.53 41.34 123.84 34.8 114.31 36.03 103.98 36.15 98.46 40.42 93 37.45 87.61 34.97 82.52 33.41 76.99 33.53 71.29Z"/><path fill="#f49d6a" d="M63.64 72.09C64.13 72.05 65.1 71.98 65.59 71.94 63.6 74.99 62.36 78.56 63 82.24 60.19 81.57 56.92 80.85 55.51 78 56.63 74.57 60.79 73.69 63.64 72.09Z"/><path fill="#f39d6b" d="M143.24 71.94C143.76 71.97 144.79 72.05 145.31 72.09 148.61 73.34 151.73 75.2 153.96 77.99 151.69 80.21 148.92 81.82 145.77 82.4 146.61 78.65 145.27 75.03 143.24 71.94Z"/><path fill="#fffdf9" d="M66.6 73.49C68.95 70.54 72.2 75.58 69.69 77.54 67.27 79.75 64.42 75.27 66.6 73.49Z"/><path fill="#fcfcfc" d="M135 72.94C137.83 71.25 139.57 76.62 136.87 77.88 133.96 79.27 132.33 74.01 135 72.94Z"/><path fill="#fec28e" d="M16.03 76.97C21.41 75.02 27.15 77.16 31.76 80.02 32.67 83.49 34.36 86.67 35.47 90.07 36.42 92.52 35.22 95.06 34.76 97.47 29.65 91.42 21.85 88.26 14 88.25L13.63 90.09C12.99 93.48 12.1 97.15 13.58 100.46 15.32 104.28 18.58 107.05 21.36 110.09 18.21 112.17 14.54 113.09 10.82 113.46 7.41 109.6 4.21 105.24 3.47 100.01 1.76 90.73 6.69 79.94 16.03 76.97Z"/><path fill="#fec28e" d="M177 80.04C181.7 77.15 187.56 74.95 193.01 77.04 202.56 80.26 207.27 91.55 205.15 100.98 204.35 105.83 201.18 109.72 198.12 113.38 194.72 112.87 191.09 112.7 188.15 110.73 189.01 107.23 192.53 105.32 194.28 102.31 196.83 98.72 196.17 94.09 195.14 90.09 195.03 89.62 194.8 88.67 194.68 88.2 186.89 88.36 179.15 91.41 174.05 97.43 173.58 95.01 172.39 92.47 173.34 90.01 174.51 86.67 176.08 83.47 177 80.04Z"/><path fill="#fffdfc" d="M72.34 78.34C74.27 77.26 76.68 78.97 76.76 81.07 77.2 83.31 75.32 85.73 72.93 85.37 70.15 84.25 69.68 79.84 72.34 78.34Z"/><path fill="#fdfffd" d="M139.6 78.66C140.87 77.62 142.91 77.84 143.77 79.29 145.57 81.53 144.08 85.55 141 85.42 138.12 84.68 137.29 80.45 139.6 78.66Z"/><path fill="#f39d6b" d="M39.22 79.22C43.36 80.63 47.64 81.67 51.62 83.5 53.24 84.07 53.67 85.87 54.43 87.21 49.84 86.6 45.2 86.57 40.61 87.08 40.11 84.46 39.6 81.85 39.22 79.22Z"/><path fill="#f39d6c" d="M156.52 86.83C160.61 84.14 164.9 81.76 169.44 79.9 169.36 80.4 169.2 81.41 169.12 81.91 168.79 83.62 168.48 85.35 168.17 87.07 164.3 86.75 160.4 86.51 156.52 86.83Z"/><path fill="#9d3a40" d="M95.38 85.83C100.83 82.51 108.69 81.78 113.58 86.49 113.73 87.19 114.02 88.58 114.17 89.27 111.15 90.76 109.03 94.26 105.4 94.23 104.89 94.23 103.87 94.22 103.36 94.22 99.79 94.34 97.71 90.88 94.76 89.4 94.89 88.2 95.1 87.01 95.38 85.83Z"/><path fill="#fdefdb" d="M102.13 84.21C104.17 83.66 106.4 83.89 108.26 84.9 109.53 87.83 105.82 87.77 103.92 87.84 102.34 87.76 99.68 87.39 100.24 85.18 100.71 84.94 101.66 84.46 102.13 84.21Z"/><path fill="#f49d6a" d="M42.35 96.23C44.27 92.2 48.87 90.54 52.73 88.93 50.53 92.65 47.97 96.15 46.05 100.03 42.82 106.37 43.51 114.51 47.85 120.18 52.05 125.76 58.61 128.89 65.11 130.97 75.27 134.36 86.02 134.92 96.6 135.87 95.74 136.71 94.89 137.57 94.06 138.44 83.92 137.7 73.8 136.05 64.14 132.78 58.34 130.85 52.51 128.2 48.44 123.48 41.72 116.37 39 105.51 42.35 96.23Z"/><path fill="#f39d6c" d="M156.64 89.06C160.17 90.62 164.22 92.22 166.21 95.76 168.9 102.4 168.2 110.17 165.02 116.53 165.62 111.58 166.07 106.42 164.52 101.6 163.05 96.79 159.64 92.97 156.64 89.06Z"/><path fill="#f39d6a" d="M13.63 90.09C21.39 90.38 29.58 93.11 33.92 99.98 32.12 107.98 34.06 116.36 38.89 122.93 28.59 125.57 18.15 120.47 10.82 113.46 14.54 113.09 18.21 112.17 21.36 110.09 18.58 107.05 15.32 104.28 13.58 100.46 12.1 97.15 12.99 93.48 13.63 90.09Z"/><path fill="#f39d6a" d="M174.95 99.98C179.22 93.1 187.42 90.39 195.14 90.09 196.17 94.09 196.83 98.72 194.28 102.31 192.53 105.32 189.01 107.23 188.15 110.73 191.09 112.7 194.72 112.87 198.12 113.38 190.77 120.47 180.28 125.48 169.92 123 174.69 116.37 176.61 108.01 174.95 99.98Z"/><path fill="#010102" d="M103.36 94.22C103.87 94.22 104.89 94.23 105.4 94.23 105.38 103.66 105.43 113.09 105.38 122.53 109.17 123.42 113.17 125.32 114.83 129.08 114.74 129.63 114.54 130.72 114.45 131.26 111.89 128 108.6 124.38 104.01 124.81 99.75 124.74 96.88 128.18 94.43 131.17 93.05 129.61 94.54 127.82 95.6 126.66 97.6 124.37 100.53 123.31 103.38 122.53 103.35 113.09 103.39 103.66 103.36 94.22Z"/><path fill="#f29d6a" d="M149.43 128.32C154.83 126.22 159.2 122.3 163.74 118.81 160.69 123.93 156.12 128.12 150.63 130.46 139.31 135.38 127 137.49 114.77 138.48 113.82 137.5 112.88 136.52 111.91 135.57L111.55 135.25C124.37 134.56 137.42 133.16 149.43 128.32Z"/><path fill="#3387a7" d="M96.9 135.6C101.02 132.06 107.22 132.09 111.55 135.25L111.91 135.57C106.9 135.61 101.9 135.66 96.9 135.6Z"/><path fill="#a61d26" d="M52.84 149.57C58.97 147.11 65.13 144.69 70.95 141.54 71.69 141.66 73.17 141.91 73.91 142.04 72.76 144.5 72.32 147.49 70.49 149.53 64.65 152.94 58.31 155.74 51.64 156.98 53.09 156.1 54.5 155.15 55.92 154.21 50.82 154.83 45.69 155.2 40.56 154.85 45.86 153.36 51.34 152.44 56.42 150.23 55.52 150.06 53.74 149.74 52.84 149.57Z"/><path fill="#185874" d="M74.14 160.22C73.18 154.27 73.53 147.97 76.68 142.68 83.53 143.88 90.47 144.56 97.43 144.75 94.14 147.14 92.59 151.04 89.62 153.74 89.4 154.22 88.96 155.17 88.74 155.65 88.46 156.25 88.18 156.86 87.91 157.46 88.84 157.7 90.7 158.16 91.64 158.39 90.98 159.92 90.32 161.44 89.66 162.97 84.44 162.86 79.28 161.95 74.33 160.28L74.14 160.22Z"/><path fill="#185874" d="M113.13 144.59C120.29 144.56 127.39 143.51 134.43 142.35 137.16 146.95 138.05 152.29 137.56 157.58L137.48 157.53C133.07 154.33 127.78 152.42 122.28 153.19L120.88 153.24C118.75 149.97 116.84 146.32 113.13 144.59Z"/><path fill="#ffffff" d="M156.74 155.7C160.59 148.62 169.33 145.85 176.97 146.33 175.8 147.1 174.66 147.91 173.53 148.73 174.56 149.44 175.61 150.14 176.67 150.82 175.83 151.2 174.14 151.95 173.29 152.33 171.48 152.69 169.51 152.81 167.95 153.91 162.51 157.83 162.78 166.54 155.91 168.94 154.6 164.63 154.34 159.69 156.74 155.7Z"/><path fill="#3486ab" d="M176.97 146.33C185.56 146.56 194.24 151.13 198.15 159.01 207.02 175.28 198.46 197.94 181.25 204.67 184.63 195.75 192.36 189.13 194.77 179.77 197.08 171.83 196.15 162.09 189.69 156.3 186.16 152.9 181.16 152.19 176.67 150.82 175.61 150.14 174.56 149.44 173.53 148.73 174.66 147.91 175.8 147.1 176.97 146.33Z"/><path fill="#3e3e41" d="M112.28 147.35C113.2 146.52 115.26 147.66 114.68 148.9 113.75 149.76 111.7 148.58 112.28 147.35Z"/><path fill="#f1f1f3" d="M95.45 150.33C96.84 147.69 100.24 147.07 102.95 147.61 108.1 148.54 112.96 150.78 117.31 153.65 115.74 153.76 114.16 153.86 112.59 153.97 113.43 155.82 114.3 157.66 115.14 159.52 113.38 159.08 111.62 158.66 109.91 158.05 107.97 157.23 106.16 155.91 104.03 155.66 101.13 155.88 98.56 157.45 95.94 158.6L95.78 158.68C95.02 155.99 94.06 152.99 95.45 150.33Z"/><path fill="#d61927" d="M36.97 153.03C42.33 152.2 47.51 150.5 52.84 149.57 53.74 149.74 55.52 150.06 56.42 150.23 51.34 152.44 45.86 153.36 40.56 154.85 45.69 155.2 50.82 154.83 55.92 154.21 54.5 155.15 53.09 156.1 51.64 156.98 42.06 160.36 31.44 159.91 22.15 164.29 16.71 166.58 12.52 170.87 8.75 175.27 8.89 169.67 10.78 163.88 15.26 160.27 21.14 154.8 29.52 154.54 36.97 153.03Z"/><path fill="#9d212b" d="M51.47 158.3C58.42 156.54 65.01 153.63 71.31 150.25 71.05 153.15 70.73 156.07 69.74 158.84 65.02 172.88 63.2 187.76 63.25 202.54 57.24 200.01 51.41 196.85 46.58 192.4 40.02 186.42 33.68 179.57 25.07 176.6 20.2 174.79 14.92 175.09 9.84 175.51 13.18 171.62 16.9 167.89 21.58 165.65 30.92 161.05 41.59 161.07 51.47 158.3Z"/><path fill="#185874" d="M173.29 152.33C174.14 151.95 175.83 151.2 176.67 150.82 181.16 152.19 186.16 152.9 189.69 156.3 196.15 162.09 197.08 171.83 194.77 179.77 192.36 189.13 184.63 195.75 181.25 204.67L181.17 204.85C170.67 209.42 158.98 210.01 147.69 209.38 147.78 206.74 147.86 204.09 147.94 201.45 158.87 202.01 170.61 202.02 180.39 196.42 187.73 192.33 192.37 184.33 193.01 176.04 193.73 169.85 192.07 162.93 187 158.92 184.13 156.42 180.2 156.21 176.76 155.01 175.57 154.17 174.42 153.26 173.29 152.33Z"/><path fill="#f1f1f3" d="M167.95 153.91C169.51 152.81 171.48 152.69 173.29 152.33 174.42 153.26 175.57 154.17 176.76 155.01 171.62 155.4 165.83 158.28 165.76 164.16 168.64 164.98 172.21 165.14 173.85 168.09 175.85 170.83 174.14 174.97 170.94 175.81 165.13 177.28 158.47 174.48 155.91 168.94 162.78 166.54 162.51 157.83 167.95 153.91Z"/><path fill="#3486ab" d="M122.28 153.19C127.78 152.42 133.07 154.33 137.48 157.53 136.9 159.79 136.44 162.13 135.32 164.2 130.93 166.81 126.06 168.81 120.93 169.22 116.87 169.65 112.85 168.76 108.81 168.55 107.84 166.97 106.85 165.4 105.86 163.84 107.58 164 109.3 164.16 111.02 164.32 110.63 162.24 110.24 160.15 109.91 158.05 111.62 158.66 113.38 159.08 115.14 159.52 114.3 157.66 113.43 155.82 112.59 153.97 114.16 153.86 115.74 153.76 117.31 153.65 118.78 154.53 120.27 155.37 121.78 156.19 121.9 155.44 122.16 153.94 122.28 153.19Z"/><path fill="#f1f1f4" d="M88.74 155.65C89.86 155.57 90.99 155.48 92.11 155.37 93.43 161.91 98.97 166.13 103.38 170.64 102.13 171.07 100.9 171.64 99.59 171.84 98.72 171.86 96.98 171.89 96.11 171.91 96.7 170.47 97.29 169.03 97.88 167.6 96.32 167.81 94.75 168.02 93.21 168.34 93.51 166.64 93.84 164.94 94.17 163.24 92.66 163.15 91.16 163.06 89.66 162.97 90.32 161.44 90.98 159.92 91.64 158.39 90.7 158.16 88.84 157.7 87.91 157.46 88.18 156.86 88.46 156.25 88.74 155.65Z"/><path fill="#fefefe" d="M95.94 158.6C98.56 157.45 101.13 155.88 104.03 155.66 106.16 155.91 107.97 157.23 109.91 158.05 110.24 160.15 110.63 162.24 111.02 164.32 109.3 164.16 107.58 164 105.86 163.84 106.85 165.4 107.84 166.97 108.81 168.55L107.75 168.62C106.16 169.34 104.93 168.19 103.83 167.33 100.75 164.86 98.26 161.77 95.94 158.6Z"/><path fill="#3486ab" d="M74.33 160.28C79.28 161.95 84.44 162.86 89.66 162.97 91.16 163.06 92.66 163.15 94.17 163.24 93.84 164.94 93.51 166.64 93.21 168.34 89.59 170.01 85.77 171.16 81.8 171.63 78.22 168.68 75.74 164.67 74.33 160.28Z"/><path fill="#195874" d="M71.58 161.21C73.32 165.08 75.39 168.81 78.09 172.11 77.32 174.3 76.54 176.48 75.85 178.7 73.47 176.03 71.25 173.23 69.14 170.35 69.95 167.3 70.76 164.26 71.58 161.21Z"/><path fill="#195874" d="M133.14 172.08C135.92 168.83 137.98 165.07 139.65 161.15 140.47 164.29 141.31 167.43 142.13 170.57 139.9 173.21 137.61 175.78 135.21 178.26 134.58 176.18 133.85 174.13 133.14 172.08Z"/><path fill="#185874" d="M120.93 169.22C126.06 168.81 130.93 166.81 135.32 164.2 133.33 168.12 130.36 171.89 125.97 173.19 119.23 175.63 111.98 172.98 106.21 169.37L107.75 168.62 108.81 168.55C112.85 168.76 116.87 169.65 120.93 169.22Z"/><path fill="#185874" d="M93.21 168.34C94.75 168.02 96.32 167.81 97.88 167.6 97.29 169.03 96.7 170.47 96.11 171.91 96.98 171.89 98.72 171.86 99.59 171.84 94.18 175.21 87.23 174.6 81.8 171.63 85.77 171.16 89.59 170.01 93.21 168.34Z"/><path fill="#3486ab" d="M69.14 170.35C71.25 173.23 73.47 176.03 75.85 178.7L75.7 179.22C74.47 185.01 73.47 191.73 76.86 197.01 80.85 202.59 87.74 205.05 94.18 206.52 104.86 208.48 116.37 208.07 126.36 203.46 130.73 201.42 134.98 198 136.11 193.09 137.19 188.38 136.51 183.47 135.38 178.84L135.21 178.26C137.61 175.78 139.9 173.21 142.13 170.57 145.42 185.51 145.93 200.91 144.56 216.11L144.41 216.25C143.19 217.31 142.12 218.53 141.04 219.74 140.43 219.31 139.22 218.45 138.62 218.02 138.34 218.84 137.77 220.49 137.49 221.31 136.58 220.55 135.66 219.79 134.75 219.03 134 215.91 132.87 212.67 133.64 209.43 134.23 206.84 135.17 204.34 135.94 201.8 130.27 203.02 125.82 207.35 120 208.08 110.76 209.62 101.24 209.68 91.99 208.15 86.12 207.32 81.37 203.47 75.86 201.59 77.57 207.28 79.92 213.68 76.25 219.17 75.91 219.44 75.21 219.98 74.87 220.25 74.51 220.51 73.8 221.04 73.45 221.3 73.16 220.52 72.59 218.97 72.31 218.2 71.63 218.6 70.27 219.41 69.59 219.82 68.92 218.69 68.26 217.57 67.59 216.45 66.14 214.29 66.45 211.54 66.17 209.08 65.29 196.1 66.62 183.08 69.14 170.35Z"/><path fill="#f39d69" d="M78.09 172.11C85.92 178.85 97.45 177.48 105.6 172.09 110.65 174.86 116.25 177.31 122.15 176.7 126.23 176.46 129.94 174.51 133.14 172.08 133.85 174.13 134.58 176.18 135.21 178.26L135.38 178.84C131.97 179.78 128.56 180.9 125 180.98 118.15 181.23 111.81 177.78 104.97 177.9 98.14 177.84 91.74 180.78 84.96 181.14 81.75 181.33 78.7 180.17 75.7 179.22L75.85 178.7C76.54 176.48 77.32 174.3 78.09 172.11Z"/><path fill="#fec28e" d="M84.96 181.14C91.74 180.78 98.14 177.84 104.97 177.9 111.81 177.78 118.15 181.23 125 180.98 128.56 180.9 131.97 179.78 135.38 178.84 136.51 183.47 137.19 188.38 136.11 193.09 134.98 198 130.73 201.42 126.36 203.46 116.37 208.07 104.86 208.48 94.18 206.52 87.74 205.05 80.85 202.59 76.86 197.01 73.47 191.73 74.47 185.01 75.7 179.22 78.7 180.17 81.75 181.33 84.96 181.14Z"/><path fill="#185774" d="M75.86 201.59C81.37 203.47 86.12 207.32 91.99 208.15 101.24 209.68 110.76 209.62 120 208.08 125.82 207.35 130.27 203.02 135.94 201.8 135.17 204.34 134.23 206.84 133.64 209.43 132.87 212.67 134 215.91 134.75 219.03 134.43 220.09 134.11 221.14 133.79 222.19 132.92 221.49 132.06 220.79 131.21 220.08 130.68 221.15 130.15 222.21 129.62 223.28 129.28 222.91 128.6 222.16 128.26 221.79 125.5 218.57 123.88 214.54 121.1 211.31 110.92 213.8 100.26 213.7 90.05 211.37 87.5 214.63 85.28 218.13 83.43 221.84L83.18 221.96C82.48 222.29 81.79 222.62 81.1 222.96 80.67 221.95 80.24 220.95 79.82 219.94 79.25 220.53 78.12 221.72 77.56 222.32 77.23 221.53 76.58 219.96 76.25 219.17 79.92 213.68 77.57 207.28 75.86 201.59Z"/><path fill="#fefefe" d="M141.04 219.74C142.12 218.53 143.19 217.31 144.41 216.25 144.61 217.53 144.77 218.83 145.04 220.11 149.13 221.14 152.55 224.09 155.04 227.42 150.03 229.34 144.08 229.41 139.4 226.59 137.53 225.52 137.56 223.19 137.49 221.31 137.77 220.49 138.34 218.84 138.62 218.02 139.22 218.45 140.43 219.31 141.04 219.74Z"/><path fill="#fefefe" d="M67.59 216.45C68.26 217.57 68.92 218.69 69.59 219.82 70.27 219.41 71.63 218.6 72.31 218.2 72.59 218.97 73.16 220.52 73.45 221.3 73.8 221.04 74.51 220.51 74.87 220.25 74.12 222.69 74.3 226.28 71.4 227.31 66.45 229.42 60.97 228.51 55.77 228.26 57.76 224.44 61.49 222.18 65.12 220.16 66.82 219.64 67.25 217.99 67.59 216.45Z"/><path fill="#f1f1f3" d="M133.79 222.19C134.11 221.14 134.43 220.09 134.75 219.03 135.66 219.79 136.58 220.55 137.49 221.31 137.56 223.19 137.53 225.52 139.4 226.59 144.08 229.41 150.03 229.34 155.04 227.42L155.28 227.34C154.98 228.81 154.65 230.49 152.97 230.95 147.3 233.13 141.01 233.11 135.05 232.44 132.06 231.94 128.58 231.44 126.66 228.81 125.75 226.38 127.51 224.03 128.26 221.79 128.6 222.16 129.28 222.91 129.62 223.28 130.15 222.21 130.68 221.15 131.21 220.08 132.06 220.79 132.92 221.49 133.79 222.19Z"/><path fill="#f1f1f3" d="M74.87 220.25C75.21 219.98 75.91 219.44 76.25 219.17 76.58 219.96 77.23 221.53 77.56 222.32 78.12 221.72 79.25 220.53 79.82 219.94 80.24 220.95 80.67 221.95 81.1 222.96 81.79 222.62 82.48 222.29 83.18 221.96 84.01 224.46 86.36 228.4 83.19 230.27 77.99 233.12 71.71 232.97 65.95 232.65 62.34 232.09 57.55 232.1 55.77 228.26 60.97 228.51 66.45 229.42 71.4 227.31 74.3 226.28 74.12 222.69 74.87 220.25Z"/></svg>