<svg id="974a68bc-24c6-4542-b49d-8730a2c64eef" data-name="Layer 1" xmlns="http://www.w3.org/2000/svg" xmlns:xlink="http://www.w3.org/1999/xlink" viewBox="0 0 524.61 400"><defs><clipPath id="2193b9bd-4639-4465-a8b5-e67b6132d3b6"><rect x="-275.39" width="800" height="400" fill="none"/></clipPath></defs><title>Untitled-2-01-01</title><rect x="-275.39" width="800" height="400" fill="#29abe2"/><g clip-path="url(#2193b9bd-4639-4465-a8b5-e67b6132d3b6)"><path d="M507.16,301.63V84.14a6.09,6.09,0,0,0-6.27-5.85H178.25A6.09,6.09,0,0,0,172,84.14V301.63H507.16Z" fill="#edeef1"/><circle cx="183.03" cy="86.41" r="3.5" fill="#aaa"/><circle cx="206.53" cy="86.41" r="3.5" fill="#aaa"/><circle cx="194.78" cy="86.41" r="3.5" fill="#aaa"/><rect x="221.03" y="89.91" width="250" height="8" rx="2.5" ry="2.5" fill="#fff"/><rect x="179.32" y="105.91" width="320.5" height="189.44" fill="#fff"/><path d="M495.53,235.91h0a2.76,2.76,0,0,1-2.75-2.75V110.66a2.76,2.76,0,0,1,2.75-2.75h0a2.76,2.76,0,0,1,2.75,2.75v122.5A2.76,2.76,0,0,1,495.53,235.91Z" fill="#edeef1"/><rect x="434.03" y="147.91" width="54.5" height="54.5" transform="translate(922.56 350.32) rotate(180)" fill="#edeef1"/><rect x="297.58" y="147.91" width="54.5" height="54.5" transform="translate(649.65 350.32) rotate(180)" fill="#edeef1"/><rect x="365.8" y="147.91" width="54.5" height="125.66" transform="translate(786.11 421.48) rotate(180)" fill="#edeef1"/><rect x="434.03" y="219.41" width="54.5" height="54.5" transform="translate(922.56 493.32) rotate(180)" fill="#edeef1"/><rect x="297.58" y="219.41" width="54.5" height="54.5" transform="translate(649.65 493.32) rotate(180)" fill="#edeef1"/><rect x="194.78" y="147.91" width="65.5" height="2.5" transform="translate(455.06 298.32) rotate(180)" fill="#edeef1"/><rect x="194.78" y="157.55" width="65.5" height="2.5" fill="#edeef1"/><rect x="194.78" y="167.19" width="65.5" height="2.5" fill="#edeef1"/><rect x="194.78" y="176.83" width="65.5" height="2.5" fill="#edeef1"/><rect x="194.78" y="186.47" width="65.5" height="2.5" fill="#edeef1"/><rect x="194.78" y="196.11" width="65.5" height="2.5" fill="#edeef1"/><rect x="194.78" y="205.75" width="65.5" height="2.5" fill="#edeef1"/><rect x="194.78" y="215.38" width="65.5" height="2.5" fill="#edeef1"/><rect x="194.78" y="225.02" width="65.5" height="2.5" fill="#edeef1"/><rect x="194.78" y="234.66" width="65.5" height="2.5" transform="translate(455.06 471.82) rotate(180)" fill="#edeef1"/><rect x="447.47" y="118.92" width="39.65" height="9.89" fill="#edeef1"/><rect x="196.33" y="118.92" width="211.76" height="9.89" fill="#edeef1"/><rect x="478.19" y="118.92" width="10.38" height="9.89" fill="#ff9f48"/><path d="M485.91,124.18a2,2,0,1,0-3.13-.35l-1.93,1.94a0.44,0.44,0,0,0,0,.62h0a0.44,0.44,0,0,0,.62,0l1.94-1.93A2,2,0,0,0,485.91,124.18Zm-2.37-.48a1.34,1.34,0,1,1,1.89,0A1.34,1.34,0,0,1,483.54,123.7Z" fill="#fff"/><path d="M321.68,191L267,190.74l-54.69-.22a4.77,4.77,0,0,0-4.78,4.74L207,327.63a4.77,4.77,0,0,0,4.74,4.78l54.69,0.22,54.69,0.22a4.77,4.77,0,0,0,4.78-4.74l0.54-132.38A4.77,4.77,0,0,0,321.68,191Z" fill="#33434f"/><rect x="214.57" y="198.07" width="104.24" height="127.23" transform="matrix(1, 0, 0, 1, 1.08, -1.09)" fill="#fff"/><rect x="214.32" y="318.96" width="104.23" height="6.34" transform="translate(1.32 -1.09) rotate(0.24)" fill="#bfbfbf"/><rect x="246.38" y="179.73" width="20.61" height="15.72" transform="translate(0.77 -1.04) rotate(0.23)" fill="#efefef"/><rect x="266.99" y="179.82" width="20.61" height="15.72" transform="translate(553.82 376.5) rotate(-179.76)" fill="#c9c9c9"/><rect x="246.38" y="179.73" width="20.61" height="15.72" transform="translate(0.77 -1.04) rotate(0.23)" fill="#efefef"/><rect x="266.99" y="179.82" width="20.61" height="15.72" transform="translate(553.82 376.5) rotate(-179.76)" fill="#c9c9c9"/><circle cx="249.18" cy="181.88" r="1.12" transform="translate(66.32 430.35) rotate(-89.78)" fill="#b7b7b7"/><circle cx="284.85" cy="182.03" r="1.12" transform="translate(101.71 466.16) rotate(-89.78)" fill="#a8a8a8"/><rect x="245.27" y="206.04" width="3.36" height="92.56" transform="matrix(0.97, 0.25, -0.25, 0.97, 71.27, -53.92)" fill="#ffe048"/><rect x="248.52" y="206.88" width="3.36" height="92.56" transform="translate(428.82 561.04) rotate(-165.46)" fill="#fbc14a"/><rect x="251.77" y="207.73" width="3.36" height="92.56" transform="translate(71.81 -55.45) rotate(14.53)" fill="#f7ad4b"/><rect x="245.27" y="206.04" width="3.36" height="92.56" transform="matrix(0.97, 0.25, -0.25, 0.97, 71.27, -53.92)" fill="#ffe048"/><rect x="248.52" y="206.88" width="3.36" height="92.56" transform="translate(428.82 561.04) rotate(-165.46)" fill="#fbc14a"/><rect x="251.77" y="207.73" width="3.36" height="92.56" transform="translate(71.81 -55.45) rotate(14.53)" fill="#f7ad4b"/><rect x="256.56" y="207.62" width="10.54" height="1.36" transform="translate(60.67 -59.06) rotate(14.54)" fill="#2c2e3a"/><path d="M233.69,296.7l2.14,11.73,6.69-8.12h0l0.9-1.09a1.68,1.68,0,1,0-3.25-.84,1.68,1.68,0,1,0-3.25-.84,1.67,1.67,0,0,0-3.19-1Z" fill="#f9c6a0"/><polygon points="235.69 307.68 236.31 307.84 235.83 308.43 235.69 307.68" fill="#474042"/><path d="M251.17,286.75L249,286a2.81,2.81,0,0,0-3.48,1.88L243,295.21a2.81,2.81,0,0,0,1.61,3.61l2.2,0.75Z" fill="#e5e5e5"/><path d="M251.17,286.75l2.2,0.75a2.81,2.81,0,0,1,1.61,3.61l-2.49,7.33a2.81,2.81,0,0,1-3.48,1.88l-2.2-.75Z" fill="#c9c9c9"/><path d="M251.17,286.75L249,286a2.81,2.81,0,0,0-3.48,1.88L243,295.21a2.81,2.81,0,0,0,1.61,3.61l2.2,0.75Z" fill="#e5e5e5"/><path d="M251.17,286.75l2.2,0.75a2.81,2.81,0,0,1,1.61,3.61l-2.49,7.33a2.81,2.81,0,0,1-3.48,1.88l-2.2-.75Z" fill="#c9c9c9"/><rect x="217.69" y="247.64" width="86.38" height="5.11" transform="translate(-59.88 416.84) rotate(-71.26)" fill="#ffe048"/><rect x="222.53" y="249.28" width="86.38" height="5.11" transform="translate(-58.15 422.54) rotate(-71.26)" fill="#f7ad4b"/><rect x="217.69" y="247.64" width="86.38" height="5.11" transform="translate(-59.88 416.84) rotate(-71.26)" fill="#ffe048"/><rect x="222.53" y="249.28" width="86.38" height="5.11" transform="translate(-58.15 422.54) rotate(-71.26)" fill="#f7ad4b"/><polygon points="272.43 208.21 272.12 209.11 281.8 212.4 282.11 211.5 281.72 198.01 281.33 197.88 280.94 197.75 272.43 208.21" fill="#e8b58b"/><polygon points="280.46 198.34 281.81 196.45 281.74 198.77 280.46 198.34" fill="#333231"/><rect x="245.85" y="288.42" width="2.39" height="5.11" transform="translate(-107.86 431.5) rotate(-71.27)" fill="#33434f"/><rect x="250.69" y="290.07" width="2.39" height="5.11" transform="translate(-106.13 437.19) rotate(-71.27)" fill="#33434f"/><rect x="245.85" y="288.42" width="2.39" height="5.11" transform="translate(-107.86 431.5) rotate(-71.27)" fill="#33434f"/><rect x="250.69" y="290.07" width="2.39" height="5.11" transform="translate(-106.13 437.19) rotate(-71.27)" fill="#33434f"/><rect x="145.03" y="172.82" width="31.4" height="106" transform="translate(294.78 468.43) rotate(-173.48)" fill="#fff"/><rect x="152.97" y="177.92" width="24.27" height="19.29" transform="translate(307.83 392.68) rotate(-173.48)" fill="#fcffb6"/><rect x="152.54" y="200.94" width="19.29" height="24.27" transform="translate(-67.92 350.01) rotate(-83.48)" fill="#f4ff8f"/><rect x="149.63" y="226.44" width="19.29" height="24.27" transform="translate(-95.84 369.72) rotate(-83.48)" fill="#e9ff64"/><rect x="144.23" y="254.42" width="24.27" height="19.29" transform="translate(281.72 544.19) rotate(-173.48)" fill="#ddff4d"/><rect x="127.61" y="173.12" width="31.4" height="106" transform="translate(318.39 428.63) rotate(171.52)" fill="#fff"/><rect x="125.5" y="178.39" width="24.27" height="19.29" transform="translate(301.49 353.72) rotate(171.52)" fill="#bdffcd"/><rect x="129.29" y="203.78" width="24.27" height="19.29" transform="translate(-29.92 23.18) rotate(-8.48)" fill="#97ffb4"/><rect x="133.07" y="229.16" width="24.27" height="19.29" transform="translate(-33.62 24.02) rotate(-8.48)" fill="#6cff99"/><rect x="136.85" y="254.55" width="24.27" height="19.29" transform="translate(335.3 503.54) rotate(171.52)" fill="#50ff8a"/><rect x="110.86" y="177.91" width="31.4" height="106" transform="translate(334.64 392.29) rotate(156.52)" fill="#fff"/><rect x="99.09" y="185.95" width="24.27" height="19.29" transform="translate(291.17 330.69) rotate(156.52)" fill="#c2d3ff"/><rect x="109.32" y="209.49" width="24.27" height="19.29" transform="translate(-77.25 66.53) rotate(-23.48)" fill="#9fb6ff"/><rect x="119.54" y="233.04" width="24.27" height="19.29" transform="translate(-85.79 72.55) rotate(-23.48)" fill="#7d96ff"/><rect x="129.77" y="256.58" width="24.27" height="19.29" transform="translate(378.12 453.87) rotate(156.52)" fill="#4d67ff"/><rect x="95.92" y="186.88" width="31.4" height="106" transform="translate(348.26 358.22) rotate(141.52)" fill="#fff"/><rect x="75.54" y="200.09" width="24.27" height="19.29" transform="translate(286.8 319.39) rotate(141.52)" fill="#ffb0b0"/><rect x="91.51" y="220.19" width="24.27" height="19.29" transform="translate(-120.5 114.4) rotate(-38.48)" fill="#ff9292"/><rect x="107.48" y="240.28" width="24.27" height="19.29" transform="translate(-129.53 128.69) rotate(-38.48)" fill="#ff6969"/><rect x="123.45" y="260.37" width="24.27" height="19.29" transform="translate(409.73 397.04) rotate(141.52)" fill="#ff4d4d"/><rect x="83.81" y="199.41" width="31.4" height="106" transform="translate(361.59 322.65) rotate(126.52)" fill="#fff"/><rect x="56.44" y="219.85" width="24.27" height="19.29" transform="matrix(-0.6, 0.8, -0.8, -0.6, 293.82, 310.97)" fill="#f2abff"/><rect x="77.07" y="235.12" width="24.27" height="19.29" transform="translate(-160.59 170.79) rotate(-53.48)" fill="#e98dff"/><rect x="97.7" y="250.4" width="24.27" height="19.29" transform="translate(-164.51 193.54) rotate(-53.48)" fill="#e36eff"/><rect x="118.32" y="265.67" width="24.27" height="19.29" transform="translate(429.35 334.33) rotate(126.52)" fill="#dc4aff"/><circle cx="151.57" cy="292.51" r="25.42" transform="translate(-156.27 409.87) rotate(-83.48)" fill="#fcffff"/><circle cx="151.57" cy="292.51" r="15.79" fill="#ccc"/><circle cx="151.57" cy="292.51" r="14.88" fill="#fcffff"/><circle cx="151.57" cy="292.51" r="3.29" fill="#33434f"/></g><path d="M28,323.13l-1.74-7.39a6.51,6.51,0,0,1,4.83-7.81h0a6.51,6.51,0,0,1,7.81,4.83l1.74,7.38A6.51,6.51,0,0,1,35.78,328h0A6.51,6.51,0,0,1,28,323.13Z" fill="#33434f"/><polygon points="102.85 299.19 107.76 298.03 111.4 301.95 103.91 303.72 102.85 299.19" fill="#303030"/><path d="M97.1,311c-0.22-2.52,9-6.35,9-6.35L105.25,301l-0.85-3.61s-10,.7-10.89-1.66l-0.57-2.4-7.84,1.85,2.36,10,2.36,10,7.84-1.85Z" fill="#33434f"/><rect x="49.33" y="281.48" width="22.94" height="60.04" transform="translate(350.03 180.85) rotate(76.74)" fill="#5d727f"/><path d="M356.39,344.72a6.69,6.69,0,0,1-6.61-5.8l-2.46-18.44A5.4,5.4,0,0,1,358,319.06l2.18,16.29a4.07,4.07,0,0,1-8.08,1.08l-2-15.35a0.84,0.84,0,0,1,1.67-.22l2,15.35a2.39,2.39,0,0,0,4.73-.63l-2.18-16.29a3.72,3.72,0,0,0-7.37,1l2.46,18.44a5,5,0,1,0,9.91-1.32l-1.47-11a0.84,0.84,0,0,1,1.67-.22l1.47,11a6.68,6.68,0,0,1-5.74,7.51A6.83,6.83,0,0,1,356.39,344.72Z" fill="#fff"/></svg>